<?xml version="1.0" standalone="no"?><!DOCTYPE svg PUBLIC "-//W3C//DTD SVG 1.1//EN" "http://www.w3.org/Graphics/SVG/1.1/DTD/svg11.dtd"><svg t="1667289462602" class="icon" viewBox="0 0 1024 1024" version="1.1" xmlns="http://www.w3.org/2000/svg" p-id="3384" xmlns:xlink="http://www.w3.org/1999/xlink" width="200" height="200"><path d="M860.306286 430.08H147.602286C107.008 430.08 73.874286 463.36 73.874286 503.954286v442.368c0 40.521143 33.133714 73.728 73.728 73.728h712.704c40.521143 0 73.728-33.206857 73.728-73.728V503.881143c0-40.594286-33.206857-73.728-73.728-73.728zM503.954286 935.862857c-57.782857 0-104.448-46.738286-104.448-104.448 0-43.666286 26.404571-81.115429 64.512-96.475428V576.365714a39.862857 39.862857 0 1 1 79.872 0v158.500572a104.374857 104.374857 0 0 1-39.936 200.923428z" fill="#6C798C" opacity=".6" p-id="3385"></path><path d="M782.848 433.810286H702.976V278.381714a199.021714 199.021714 0 1 0-398.116571 0V433.737143H224.987429V278.381714C224.987429 124.781714 350.354286 0 503.954286 0s278.893714 125.293714 278.893714 278.893714v154.843429z" fill="#6C798C" opacity=".6" p-id="3386"></path></svg>